<mxfile host="Electron" modified="2023-10-06T00:40:53.287Z" agent="Mozilla/5.0 (Windows NT 10.0; Win64; x64) AppleWebKit/537.36 (KHTML, like Gecko) draw.io/22.0.2 Chrome/114.0.5735.289 Electron/25.8.4 Safari/537.36" etag="iwV624ajoyH-HqURmm4x" version="22.0.2" type="device">
  <diagram name="Page-1" id="b520641d-4fe3-3701-9064-5fc419738815">
    <mxGraphModel dx="1663" dy="1216" grid="1" gridSize="10" guides="1" tooltips="1" connect="1" arrows="1" fold="1" page="1" pageScale="1" pageWidth="1100" pageHeight="850" background="none" math="0" shadow="0">
      <root>
        <mxCell id="0" />
        <mxCell id="1" parent="0" />
        <mxCell id="sCOduQ-NGnOX70wJEheQ-1" value="" style="rounded=0;whiteSpace=wrap;html=1;strokeColor=none;" parent="1" vertex="1">
          <mxGeometry x="50" y="720" width="1080" height="1100" as="geometry" />
        </mxCell>
        <mxCell id="sCOduQ-NGnOX70wJEheQ-2" value="Customer" style="html=1;dashed=0;whiteSpace=wrap;shape=mxgraph.dfd.externalEntity;fontSize=14;" parent="1" vertex="1">
          <mxGeometry x="810" y="1295" width="120" height="75" as="geometry" />
        </mxCell>
        <mxCell id="sCOduQ-NGnOX70wJEheQ-3" value="&amp;nbsp;D3&amp;nbsp; &amp;nbsp; &amp;nbsp;Booking Database" style="html=1;dashed=0;whiteSpace=wrap;shape=mxgraph.dfd.dataStoreID;align=left;spacingLeft=3;points=[[0,0],[0.5,0],[1,0],[0,0.5],[1,0.5],[0,1],[0.5,1],[1,1]];" parent="1" vertex="1">
          <mxGeometry x="480" y="1280" width="160" height="30" as="geometry" />
        </mxCell>
        <mxCell id="sCOduQ-NGnOX70wJEheQ-4" value="1.1" style="swimlane;fontStyle=0;childLayout=stackLayout;horizontal=1;startSize=30;horizontalStack=0;resizeParent=1;resizeParentMax=0;resizeLast=0;collapsible=1;marginBottom=0;whiteSpace=wrap;html=1;rounded=1;" parent="1" vertex="1">
          <mxGeometry x="788" y="1096" width="150" height="100" as="geometry" />
        </mxCell>
        <mxCell id="sCOduQ-NGnOX70wJEheQ-5" value="Manage&lt;br&gt;Customer&lt;br&gt;Information" style="text;strokeColor=none;fillColor=none;align=center;verticalAlign=middle;spacingLeft=4;spacingRight=4;overflow=hidden;points=[[0,0.5],[1,0.5]];portConstraint=eastwest;rotatable=0;whiteSpace=wrap;html=1;" parent="sCOduQ-NGnOX70wJEheQ-4" vertex="1">
          <mxGeometry y="30" width="150" height="70" as="geometry" />
        </mxCell>
        <mxCell id="sCOduQ-NGnOX70wJEheQ-6" value="&amp;nbsp;D1&amp;nbsp; &amp;nbsp; &amp;nbsp;Customer Database" style="html=1;dashed=0;whiteSpace=wrap;shape=mxgraph.dfd.dataStoreID;align=left;spacingLeft=3;points=[[0,0],[0.5,0],[1,0],[0,0.5],[1,0.5],[0,1],[0.5,1],[1,1]];" parent="1" vertex="1">
          <mxGeometry x="480" y="1105" width="160" height="30" as="geometry" />
        </mxCell>
        <mxCell id="sCOduQ-NGnOX70wJEheQ-7" value="&amp;nbsp;D2&amp;nbsp; &amp;nbsp; &amp;nbsp;Property Database" style="html=1;dashed=0;whiteSpace=wrap;shape=mxgraph.dfd.dataStoreID;align=left;spacingLeft=3;points=[[0,0],[0.5,0],[1,0],[0,0.5],[1,0.5],[0,1],[0.5,1],[1,1]];" parent="1" vertex="1">
          <mxGeometry x="480" y="1190" width="160" height="30" as="geometry" />
        </mxCell>
        <mxCell id="sCOduQ-NGnOX70wJEheQ-8" value="&amp;nbsp;D4&amp;nbsp; &amp;nbsp; &amp;nbsp;Payment Database" style="html=1;dashed=0;whiteSpace=wrap;shape=mxgraph.dfd.dataStoreID;align=left;spacingLeft=3;points=[[0,0],[0.5,0],[1,0],[0,0.5],[1,0.5],[0,1],[0.5,1],[1,1]];" parent="1" vertex="1">
          <mxGeometry x="405" y="1570" width="160" height="30" as="geometry" />
        </mxCell>
        <mxCell id="sCOduQ-NGnOX70wJEheQ-9" value="Property &lt;br&gt;Owner" style="html=1;dashed=0;whiteSpace=wrap;shape=mxgraph.dfd.externalEntity;fontSize=14;" parent="1" vertex="1">
          <mxGeometry x="830" y="941.5" width="120" height="75" as="geometry" />
        </mxCell>
        <mxCell id="sCOduQ-NGnOX70wJEheQ-10" value="Administrator" style="html=1;dashed=0;whiteSpace=wrap;shape=mxgraph.dfd.externalEntity;fontSize=14;" parent="1" vertex="1">
          <mxGeometry x="203" y="1236" width="120" height="75" as="geometry" />
        </mxCell>
        <mxCell id="sCOduQ-NGnOX70wJEheQ-11" value="" style="endArrow=classic;html=1;rounded=0;exitX=0;exitY=0;exitDx=55;exitDy=0;entryX=0.515;entryY=0.978;entryDx=0;entryDy=0;entryPerimeter=0;exitPerimeter=0;" parent="1" source="sCOduQ-NGnOX70wJEheQ-2" target="sCOduQ-NGnOX70wJEheQ-5" edge="1">
          <mxGeometry width="50" height="50" relative="1" as="geometry">
            <mxPoint x="1110.5" y="1264" as="sourcePoint" />
            <mxPoint x="848" y="1224" as="targetPoint" />
            <Array as="points" />
          </mxGeometry>
        </mxCell>
        <mxCell id="sCOduQ-NGnOX70wJEheQ-12" value="Customer&lt;br&gt;Details" style="text;html=1;strokeColor=none;fillColor=none;align=center;verticalAlign=middle;whiteSpace=wrap;rounded=0;" parent="1" vertex="1">
          <mxGeometry x="865" y="1230" width="100" height="30" as="geometry" />
        </mxCell>
        <mxCell id="sCOduQ-NGnOX70wJEheQ-16" value="" style="endArrow=classic;html=1;rounded=0;exitX=0;exitY=0.25;exitDx=0;exitDy=0;entryX=1;entryY=0.5;entryDx=0;entryDy=0;" parent="1" source="sCOduQ-NGnOX70wJEheQ-4" target="sCOduQ-NGnOX70wJEheQ-6" edge="1">
          <mxGeometry width="50" height="50" relative="1" as="geometry">
            <mxPoint x="700" y="985" as="sourcePoint" />
            <mxPoint x="847" y="1197" as="targetPoint" />
            <Array as="points">
              <mxPoint x="700" y="1120" />
            </Array>
          </mxGeometry>
        </mxCell>
        <mxCell id="isEXDmm_gz4SDGrn-jFA-1" value="" style="endArrow=classic;html=1;rounded=0;exitX=0;exitY=0.5;exitDx=0;exitDy=0;entryX=1;entryY=0.5;entryDx=0;entryDy=0;" parent="1" source="sCOduQ-NGnOX70wJEheQ-6" target="isEXDmm_gz4SDGrn-jFA-12" edge="1">
          <mxGeometry width="50" height="50" relative="1" as="geometry">
            <mxPoint x="660" y="1055" as="sourcePoint" />
            <mxPoint x="570" y="1115" as="targetPoint" />
            <Array as="points" />
          </mxGeometry>
        </mxCell>
        <mxCell id="isEXDmm_gz4SDGrn-jFA-2" value="Customer Details" style="text;html=1;strokeColor=none;fillColor=none;align=center;verticalAlign=middle;whiteSpace=wrap;rounded=0;" parent="1" vertex="1">
          <mxGeometry x="640" y="1090" width="160" height="30" as="geometry" />
        </mxCell>
        <mxCell id="isEXDmm_gz4SDGrn-jFA-3" value="Booking &lt;br&gt;Details" style="text;html=1;strokeColor=none;fillColor=none;align=center;verticalAlign=middle;whiteSpace=wrap;rounded=0;" parent="1" vertex="1">
          <mxGeometry x="350" y="1090" width="90" height="30" as="geometry" />
        </mxCell>
        <mxCell id="isEXDmm_gz4SDGrn-jFA-5" value="" style="endArrow=classic;html=1;rounded=0;exitX=0;exitY=0.5;exitDx=0;exitDy=0;entryX=0;entryY=0.5;entryDx=0;entryDy=0;" parent="1" source="isEXDmm_gz4SDGrn-jFA-8" target="sCOduQ-NGnOX70wJEheQ-7" edge="1">
          <mxGeometry width="50" height="50" relative="1" as="geometry">
            <mxPoint x="490" y="1130" as="sourcePoint" />
            <mxPoint x="325" y="1230" as="targetPoint" />
            <Array as="points">
              <mxPoint x="430" y="990" />
              <mxPoint x="430" y="1050" />
              <mxPoint x="430" y="1205" />
            </Array>
          </mxGeometry>
        </mxCell>
        <mxCell id="isEXDmm_gz4SDGrn-jFA-6" value="Property Details" style="text;html=1;strokeColor=none;fillColor=none;align=center;verticalAlign=middle;whiteSpace=wrap;rounded=0;" parent="1" vertex="1">
          <mxGeometry x="410" y="960" width="160" height="30" as="geometry" />
        </mxCell>
        <mxCell id="isEXDmm_gz4SDGrn-jFA-7" value="1.2" style="swimlane;fontStyle=0;childLayout=stackLayout;horizontal=1;startSize=30;horizontalStack=0;resizeParent=1;resizeParentMax=0;resizeLast=0;collapsible=1;marginBottom=0;whiteSpace=wrap;html=1;rounded=1;" parent="1" vertex="1">
          <mxGeometry x="570" y="925" width="150" height="100" as="geometry" />
        </mxCell>
        <mxCell id="isEXDmm_gz4SDGrn-jFA-8" value="Register&lt;br&gt;New&lt;br&gt;Property" style="text;strokeColor=none;fillColor=none;align=center;verticalAlign=middle;spacingLeft=4;spacingRight=4;overflow=hidden;points=[[0,0.5],[1,0.5]];portConstraint=eastwest;rotatable=0;whiteSpace=wrap;html=1;" parent="isEXDmm_gz4SDGrn-jFA-7" vertex="1">
          <mxGeometry y="30" width="150" height="70" as="geometry" />
        </mxCell>
        <mxCell id="isEXDmm_gz4SDGrn-jFA-9" value="" style="endArrow=classic;html=1;rounded=0;exitX=0;exitY=0;exitDx=0;exitDy=48.75;entryX=1;entryY=0.5;entryDx=0;entryDy=0;exitPerimeter=0;" parent="1" source="sCOduQ-NGnOX70wJEheQ-9" target="isEXDmm_gz4SDGrn-jFA-8" edge="1">
          <mxGeometry width="50" height="50" relative="1" as="geometry">
            <mxPoint x="580" y="1000" as="sourcePoint" />
            <mxPoint x="490" y="1215" as="targetPoint" />
            <Array as="points">
              <mxPoint x="770" y="990" />
            </Array>
          </mxGeometry>
        </mxCell>
        <mxCell id="isEXDmm_gz4SDGrn-jFA-10" value="Property Details" style="text;html=1;strokeColor=none;fillColor=none;align=center;verticalAlign=middle;whiteSpace=wrap;rounded=0;" parent="1" vertex="1">
          <mxGeometry x="700" y="960" width="160" height="30" as="geometry" />
        </mxCell>
        <mxCell id="isEXDmm_gz4SDGrn-jFA-11" value="1.3" style="swimlane;fontStyle=0;childLayout=stackLayout;horizontal=1;startSize=30;horizontalStack=0;resizeParent=1;resizeParentMax=0;resizeLast=0;collapsible=1;marginBottom=0;whiteSpace=wrap;html=1;rounded=1;" parent="1" vertex="1">
          <mxGeometry x="185" y="1055" width="150" height="100" as="geometry" />
        </mxCell>
        <mxCell id="isEXDmm_gz4SDGrn-jFA-12" value="Manage&lt;br&gt;Booking Details" style="text;strokeColor=none;fillColor=none;align=center;verticalAlign=middle;spacingLeft=4;spacingRight=4;overflow=hidden;points=[[0,0.5],[1,0.5]];portConstraint=eastwest;rotatable=0;whiteSpace=wrap;html=1;" parent="isEXDmm_gz4SDGrn-jFA-11" vertex="1">
          <mxGeometry y="30" width="150" height="70" as="geometry" />
        </mxCell>
        <mxCell id="isEXDmm_gz4SDGrn-jFA-13" value="" style="endArrow=classic;html=1;rounded=0;exitX=0.482;exitY=1.052;exitDx=0;exitDy=0;entryX=0;entryY=0;entryDx=55;entryDy=0;exitPerimeter=0;entryPerimeter=0;" parent="1" source="isEXDmm_gz4SDGrn-jFA-12" target="sCOduQ-NGnOX70wJEheQ-10" edge="1">
          <mxGeometry width="50" height="50" relative="1" as="geometry">
            <mxPoint x="580" y="1000" as="sourcePoint" />
            <mxPoint x="490" y="1215" as="targetPoint" />
            <Array as="points" />
          </mxGeometry>
        </mxCell>
        <mxCell id="isEXDmm_gz4SDGrn-jFA-14" value="Booking &lt;br&gt;Details" style="text;html=1;strokeColor=none;fillColor=none;align=center;verticalAlign=middle;whiteSpace=wrap;rounded=0;" parent="1" vertex="1">
          <mxGeometry x="180" y="1180" width="90" height="30" as="geometry" />
        </mxCell>
        <mxCell id="isEXDmm_gz4SDGrn-jFA-17" value="" style="endArrow=classic;html=1;rounded=0;exitX=1;exitY=0.5;exitDx=0;exitDy=0;entryX=0;entryY=0;entryDx=0;entryDy=16.25;entryPerimeter=0;" parent="1" source="sCOduQ-NGnOX70wJEheQ-7" target="sCOduQ-NGnOX70wJEheQ-2" edge="1">
          <mxGeometry width="50" height="50" relative="1" as="geometry">
            <mxPoint x="580" y="1000" as="sourcePoint" />
            <mxPoint x="490" y="1215" as="targetPoint" />
            <Array as="points">
              <mxPoint x="730" y="1205" />
              <mxPoint x="730" y="1250" />
              <mxPoint x="730" y="1310" />
            </Array>
          </mxGeometry>
        </mxCell>
        <mxCell id="isEXDmm_gz4SDGrn-jFA-18" value="Property&lt;br&gt;List" style="text;html=1;strokeColor=none;fillColor=none;align=center;verticalAlign=middle;whiteSpace=wrap;rounded=0;" parent="1" vertex="1">
          <mxGeometry x="715" y="1235" width="100" height="30" as="geometry" />
        </mxCell>
        <mxCell id="isEXDmm_gz4SDGrn-jFA-19" value="1.4" style="swimlane;fontStyle=0;childLayout=stackLayout;horizontal=1;startSize=30;horizontalStack=0;resizeParent=1;resizeParentMax=0;resizeLast=0;collapsible=1;marginBottom=0;whiteSpace=wrap;html=1;rounded=1;" parent="1" vertex="1">
          <mxGeometry x="193" y="1384" width="150" height="100" as="geometry" />
        </mxCell>
        <mxCell id="isEXDmm_gz4SDGrn-jFA-20" value="Manage&lt;br&gt;Payments" style="text;strokeColor=none;fillColor=none;align=center;verticalAlign=middle;spacingLeft=4;spacingRight=4;overflow=hidden;points=[[0,0.5],[1,0.5]];portConstraint=eastwest;rotatable=0;whiteSpace=wrap;html=1;" parent="isEXDmm_gz4SDGrn-jFA-19" vertex="1">
          <mxGeometry y="30" width="150" height="70" as="geometry" />
        </mxCell>
        <mxCell id="isEXDmm_gz4SDGrn-jFA-21" value="" style="endArrow=none;html=1;rounded=0;exitX=0;exitY=0;exitDx=65;exitDy=75;entryX=0.5;entryY=0;entryDx=0;entryDy=0;exitPerimeter=0;startArrow=classic;startFill=1;endFill=0;" parent="1" source="sCOduQ-NGnOX70wJEheQ-10" target="isEXDmm_gz4SDGrn-jFA-19" edge="1">
          <mxGeometry width="50" height="50" relative="1" as="geometry">
            <mxPoint x="267" y="1169" as="sourcePoint" />
            <mxPoint x="268" y="1246" as="targetPoint" />
            <Array as="points" />
          </mxGeometry>
        </mxCell>
        <mxCell id="isEXDmm_gz4SDGrn-jFA-22" value="Payment&lt;br&gt;Details" style="text;html=1;strokeColor=none;fillColor=none;align=center;verticalAlign=middle;whiteSpace=wrap;rounded=0;" parent="1" vertex="1">
          <mxGeometry x="130" y="1330" width="90" height="30" as="geometry" />
        </mxCell>
        <mxCell id="isEXDmm_gz4SDGrn-jFA-24" value="" style="endArrow=classic;html=1;rounded=0;exitX=0;exitY=0;exitDx=0;exitDy=48.75;entryX=0;entryY=0.25;entryDx=0;entryDy=0;exitPerimeter=0;" parent="1" source="sCOduQ-NGnOX70wJEheQ-10" target="isEXDmm_gz4SDGrn-jFA-19" edge="1">
          <mxGeometry width="50" height="50" relative="1" as="geometry">
            <mxPoint x="278" y="1321" as="sourcePoint" />
            <mxPoint x="278" y="1393" as="targetPoint" />
            <Array as="points">
              <mxPoint x="140" y="1285" />
              <mxPoint x="140" y="1408" />
            </Array>
          </mxGeometry>
        </mxCell>
        <mxCell id="isEXDmm_gz4SDGrn-jFA-25" value="Payment&lt;br&gt;Information" style="text;html=1;strokeColor=none;fillColor=none;align=center;verticalAlign=middle;whiteSpace=wrap;rounded=0;" parent="1" vertex="1">
          <mxGeometry x="260" y="1330" width="90" height="30" as="geometry" />
        </mxCell>
        <mxCell id="isEXDmm_gz4SDGrn-jFA-26" value="" style="endArrow=classic;html=1;rounded=0;entryX=1;entryY=0.25;entryDx=0;entryDy=0;exitX=0;exitY=0.5;exitDx=0;exitDy=0;" parent="1" source="sCOduQ-NGnOX70wJEheQ-3" target="isEXDmm_gz4SDGrn-jFA-19" edge="1">
          <mxGeometry width="50" height="50" relative="1" as="geometry">
            <mxPoint x="213" y="1279" as="sourcePoint" />
            <mxPoint x="203" y="1418" as="targetPoint" />
            <Array as="points">
              <mxPoint x="430" y="1295" />
              <mxPoint x="430" y="1408" />
            </Array>
          </mxGeometry>
        </mxCell>
        <mxCell id="isEXDmm_gz4SDGrn-jFA-27" value="Payment&lt;br&gt;Updates" style="text;html=1;strokeColor=none;fillColor=none;align=center;verticalAlign=middle;whiteSpace=wrap;rounded=0;" parent="1" vertex="1">
          <mxGeometry x="400" y="1454" width="90" height="30" as="geometry" />
        </mxCell>
        <mxCell id="isEXDmm_gz4SDGrn-jFA-28" value="" style="endArrow=classic;html=1;rounded=0;exitX=1;exitY=0.5;exitDx=0;exitDy=0;entryX=0;entryY=0;entryDx=120;entryDy=42.5;entryPerimeter=0;" parent="1" source="sCOduQ-NGnOX70wJEheQ-3" target="sCOduQ-NGnOX70wJEheQ-9" edge="1">
          <mxGeometry width="50" height="50" relative="1" as="geometry">
            <mxPoint x="570" y="1320" as="sourcePoint" />
            <mxPoint x="353" y="1418" as="targetPoint" />
            <Array as="points">
              <mxPoint x="670" y="1295" />
              <mxPoint x="670" y="1360" />
              <mxPoint x="670" y="1430" />
              <mxPoint x="750" y="1430" />
              <mxPoint x="990" y="1430" />
              <mxPoint x="990" y="1210" />
              <mxPoint x="990" y="984" />
            </Array>
          </mxGeometry>
        </mxCell>
        <mxCell id="isEXDmm_gz4SDGrn-jFA-29" value="Booking&lt;br&gt;Details" style="text;html=1;strokeColor=none;fillColor=none;align=center;verticalAlign=middle;whiteSpace=wrap;rounded=0;" parent="1" vertex="1">
          <mxGeometry x="910" y="1400" width="90" height="30" as="geometry" />
        </mxCell>
        <mxCell id="isEXDmm_gz4SDGrn-jFA-31" value="" style="endArrow=classic;html=1;rounded=0;exitX=1;exitY=0.5;exitDx=0;exitDy=0;entryX=0.5;entryY=0;entryDx=0;entryDy=0;" parent="1" source="isEXDmm_gz4SDGrn-jFA-20" target="sCOduQ-NGnOX70wJEheQ-8" edge="1">
          <mxGeometry width="50" height="50" relative="1" as="geometry">
            <mxPoint x="213" y="1279" as="sourcePoint" />
            <mxPoint x="203" y="1418" as="targetPoint" />
            <Array as="points">
              <mxPoint x="485" y="1450" />
            </Array>
          </mxGeometry>
        </mxCell>
        <mxCell id="isEXDmm_gz4SDGrn-jFA-32" value="Booking&lt;br&gt;Details" style="text;html=1;strokeColor=none;fillColor=none;align=center;verticalAlign=middle;whiteSpace=wrap;rounded=0;" parent="1" vertex="1">
          <mxGeometry x="440" y="1340" width="90" height="30" as="geometry" />
        </mxCell>
        <mxCell id="isEXDmm_gz4SDGrn-jFA-33" value="1.5" style="swimlane;fontStyle=0;childLayout=stackLayout;horizontal=1;startSize=30;horizontalStack=0;resizeParent=1;resizeParentMax=0;resizeLast=0;collapsible=1;marginBottom=0;whiteSpace=wrap;html=1;rounded=1;" parent="1" vertex="1">
          <mxGeometry x="800" y="1520" width="150" height="100" as="geometry" />
        </mxCell>
        <mxCell id="isEXDmm_gz4SDGrn-jFA-34" value="Manage&lt;br&gt;Booking Details" style="text;strokeColor=none;fillColor=none;align=center;verticalAlign=middle;spacingLeft=4;spacingRight=4;overflow=hidden;points=[[0,0.5],[1,0.5]];portConstraint=eastwest;rotatable=0;whiteSpace=wrap;html=1;" parent="isEXDmm_gz4SDGrn-jFA-33" vertex="1">
          <mxGeometry y="30" width="150" height="70" as="geometry" />
        </mxCell>
        <mxCell id="isEXDmm_gz4SDGrn-jFA-35" value="" style="endArrow=classic;html=1;rounded=0;entryX=0.5;entryY=0;entryDx=0;entryDy=0;" parent="1" target="isEXDmm_gz4SDGrn-jFA-33" edge="1">
          <mxGeometry width="50" height="50" relative="1" as="geometry">
            <mxPoint x="875" y="1370" as="sourcePoint" />
            <mxPoint x="820" y="1321" as="targetPoint" />
            <Array as="points" />
          </mxGeometry>
        </mxCell>
        <mxCell id="isEXDmm_gz4SDGrn-jFA-37" value="Booking&lt;br&gt;Details" style="text;html=1;strokeColor=none;fillColor=none;align=center;verticalAlign=middle;whiteSpace=wrap;rounded=0;" parent="1" vertex="1">
          <mxGeometry x="1020" y="1450" width="90" height="30" as="geometry" />
        </mxCell>
        <mxCell id="isEXDmm_gz4SDGrn-jFA-38" value="Property Chosen" style="text;html=1;strokeColor=none;fillColor=none;align=center;verticalAlign=middle;whiteSpace=wrap;rounded=0;" parent="1" vertex="1">
          <mxGeometry x="860" y="1470" width="90" height="30" as="geometry" />
        </mxCell>
        <mxCell id="isEXDmm_gz4SDGrn-jFA-41" value="" style="endArrow=classic;html=1;rounded=0;entryX=0;entryY=0;entryDx=120;entryDy=42.5;entryPerimeter=0;exitX=1;exitY=0.5;exitDx=0;exitDy=0;" parent="1" source="isEXDmm_gz4SDGrn-jFA-34" target="sCOduQ-NGnOX70wJEheQ-2" edge="1">
          <mxGeometry width="50" height="50" relative="1" as="geometry">
            <mxPoint x="885" y="1380" as="sourcePoint" />
            <mxPoint x="885" y="1530" as="targetPoint" />
            <Array as="points">
              <mxPoint x="1030" y="1585" />
              <mxPoint x="1030" y="1338" />
            </Array>
          </mxGeometry>
        </mxCell>
        <mxCell id="isEXDmm_gz4SDGrn-jFA-42" value="" style="endArrow=classic;html=1;rounded=0;exitX=1;exitY=0.5;exitDx=0;exitDy=0;entryX=0;entryY=0.5;entryDx=0;entryDy=0;" parent="1" source="sCOduQ-NGnOX70wJEheQ-8" target="isEXDmm_gz4SDGrn-jFA-34" edge="1">
          <mxGeometry width="50" height="50" relative="1" as="geometry">
            <mxPoint x="353" y="1458" as="sourcePoint" />
            <mxPoint x="520" y="1458" as="targetPoint" />
            <Array as="points">
              <mxPoint x="590" y="1585" />
            </Array>
          </mxGeometry>
        </mxCell>
        <mxCell id="isEXDmm_gz4SDGrn-jFA-43" value="Refund&lt;br&gt;Request" style="text;html=1;strokeColor=none;fillColor=none;align=center;verticalAlign=middle;whiteSpace=wrap;rounded=0;" parent="1" vertex="1">
          <mxGeometry x="743.75" y="1670" width="72.5" height="30" as="geometry" />
        </mxCell>
        <mxCell id="isEXDmm_gz4SDGrn-jFA-44" value="" style="endArrow=classic;html=1;rounded=0;exitX=0;exitY=0.25;exitDx=0;exitDy=0;entryX=0.5;entryY=1;entryDx=0;entryDy=0;" parent="1" source="isEXDmm_gz4SDGrn-jFA-33" target="sCOduQ-NGnOX70wJEheQ-3" edge="1">
          <mxGeometry width="50" height="50" relative="1" as="geometry">
            <mxPoint x="570" y="1320" as="sourcePoint" />
            <mxPoint x="353" y="1418" as="targetPoint" />
            <Array as="points">
              <mxPoint x="680" y="1545" />
              <mxPoint x="560" y="1545" />
              <mxPoint x="560" y="1430" />
            </Array>
          </mxGeometry>
        </mxCell>
        <mxCell id="isEXDmm_gz4SDGrn-jFA-45" value="Booking&lt;br&gt;Details" style="text;html=1;strokeColor=none;fillColor=none;align=center;verticalAlign=middle;whiteSpace=wrap;rounded=0;" parent="1" vertex="1">
          <mxGeometry x="550" y="1360" width="90" height="30" as="geometry" />
        </mxCell>
        <mxCell id="LLEtQVh6ZAPBpGqNTMHM-1" value="&amp;nbsp;D6&amp;nbsp; &amp;nbsp; &amp;nbsp;Refund Database" style="html=1;dashed=0;whiteSpace=wrap;shape=mxgraph.dfd.dataStoreID;align=left;spacingLeft=3;points=[[0,0],[0.5,0],[1,0],[0,0.5],[1,0.5],[0,1],[0.5,1],[1,1]];" parent="1" vertex="1">
          <mxGeometry x="210" y="1690" width="160" height="30" as="geometry" />
        </mxCell>
        <mxCell id="LLEtQVh6ZAPBpGqNTMHM-2" value="&amp;nbsp;D5&amp;nbsp; &amp;nbsp; &amp;nbsp;Feedback Database" style="html=1;dashed=0;whiteSpace=wrap;shape=mxgraph.dfd.dataStoreID;align=left;spacingLeft=3;points=[[0,0],[0.5,0],[1,0],[0,0.5],[1,0.5],[0,1],[0.5,1],[1,1]];" parent="1" vertex="1">
          <mxGeometry x="460" y="820" width="160" height="30" as="geometry" />
        </mxCell>
        <mxCell id="LLEtQVh6ZAPBpGqNTMHM-3" value="" style="endArrow=classic;html=1;rounded=0;entryX=1;entryY=0.5;entryDx=0;entryDy=0;exitX=0;exitY=0;exitDx=120;exitDy=26.25;exitPerimeter=0;" parent="1" source="sCOduQ-NGnOX70wJEheQ-2" target="LLEtQVh6ZAPBpGqNTMHM-9" edge="1">
          <mxGeometry width="50" height="50" relative="1" as="geometry">
            <mxPoint x="960" y="1595" as="sourcePoint" />
            <mxPoint x="940" y="1348" as="targetPoint" />
            <Array as="points">
              <mxPoint x="1030" y="1320" />
              <mxPoint x="1030" y="835" />
            </Array>
          </mxGeometry>
        </mxCell>
        <mxCell id="LLEtQVh6ZAPBpGqNTMHM-8" value="1.6" style="swimlane;fontStyle=0;childLayout=stackLayout;horizontal=1;startSize=30;horizontalStack=0;resizeParent=1;resizeParentMax=0;resizeLast=0;collapsible=1;marginBottom=0;whiteSpace=wrap;html=1;rounded=1;" parent="1" vertex="1">
          <mxGeometry x="788" y="770" width="150" height="100" as="geometry" />
        </mxCell>
        <mxCell id="LLEtQVh6ZAPBpGqNTMHM-9" value="Manage&lt;br&gt;Feedback" style="text;strokeColor=none;fillColor=none;align=center;verticalAlign=middle;spacingLeft=4;spacingRight=4;overflow=hidden;points=[[0,0.5],[1,0.5]];portConstraint=eastwest;rotatable=0;whiteSpace=wrap;html=1;" parent="LLEtQVh6ZAPBpGqNTMHM-8" vertex="1">
          <mxGeometry y="30" width="150" height="70" as="geometry" />
        </mxCell>
        <mxCell id="LLEtQVh6ZAPBpGqNTMHM-10" value="Feedback" style="text;html=1;strokeColor=none;fillColor=none;align=center;verticalAlign=middle;whiteSpace=wrap;rounded=0;" parent="1" vertex="1">
          <mxGeometry x="1020" y="1025" width="90" height="30" as="geometry" />
        </mxCell>
        <mxCell id="LLEtQVh6ZAPBpGqNTMHM-11" value="" style="endArrow=classic;html=1;rounded=0;exitX=0;exitY=0.5;exitDx=0;exitDy=0;entryX=1;entryY=0.5;entryDx=0;entryDy=0;" parent="1" source="LLEtQVh6ZAPBpGqNTMHM-9" target="LLEtQVh6ZAPBpGqNTMHM-2" edge="1">
          <mxGeometry width="50" height="50" relative="1" as="geometry">
            <mxPoint x="213" y="1279" as="sourcePoint" />
            <mxPoint x="203" y="1418" as="targetPoint" />
            <Array as="points" />
          </mxGeometry>
        </mxCell>
        <mxCell id="LLEtQVh6ZAPBpGqNTMHM-13" value="Feedback&lt;br&gt;Details" style="text;html=1;strokeColor=none;fillColor=none;align=center;verticalAlign=middle;whiteSpace=wrap;rounded=0;" parent="1" vertex="1">
          <mxGeometry x="660" y="805" width="90" height="30" as="geometry" />
        </mxCell>
        <mxCell id="LLEtQVh6ZAPBpGqNTMHM-16" value="" style="endArrow=classic;html=1;rounded=0;exitX=0.5;exitY=1;exitDx=0;exitDy=0;entryX=0;entryY=0;entryDx=55;entryDy=0;entryPerimeter=0;" parent="1" source="LLEtQVh6ZAPBpGqNTMHM-2" target="sCOduQ-NGnOX70wJEheQ-9" edge="1">
          <mxGeometry width="50" height="50" relative="1" as="geometry">
            <mxPoint x="798" y="845" as="sourcePoint" />
            <mxPoint x="630" y="845" as="targetPoint" />
            <Array as="points">
              <mxPoint x="540" y="890" />
              <mxPoint x="885" y="890" />
            </Array>
          </mxGeometry>
        </mxCell>
        <mxCell id="LLEtQVh6ZAPBpGqNTMHM-17" value="Feedback&lt;br&gt;Details" style="text;html=1;strokeColor=none;fillColor=none;align=center;verticalAlign=middle;whiteSpace=wrap;rounded=0;" parent="1" vertex="1">
          <mxGeometry x="280" y="960" width="90" height="30" as="geometry" />
        </mxCell>
        <mxCell id="LLEtQVh6ZAPBpGqNTMHM-19" value="" style="endArrow=classic;html=1;rounded=0;exitX=0;exitY=0.5;exitDx=0;exitDy=0;entryX=0;entryY=0;entryDx=0;entryDy=16.25;entryPerimeter=0;" parent="1" source="LLEtQVh6ZAPBpGqNTMHM-2" target="sCOduQ-NGnOX70wJEheQ-10" edge="1">
          <mxGeometry width="50" height="50" relative="1" as="geometry">
            <mxPoint x="550" y="860" as="sourcePoint" />
            <mxPoint x="895" y="952" as="targetPoint" />
            <Array as="points">
              <mxPoint x="380" y="835" />
              <mxPoint x="380" y="1000" />
              <mxPoint x="140" y="1000" />
              <mxPoint x="140" y="1252" />
            </Array>
          </mxGeometry>
        </mxCell>
        <mxCell id="LLEtQVh6ZAPBpGqNTMHM-20" value="Feedback&lt;br&gt;Details" style="text;html=1;strokeColor=none;fillColor=none;align=center;verticalAlign=middle;whiteSpace=wrap;rounded=0;" parent="1" vertex="1">
          <mxGeometry x="670" y="860" width="90" height="30" as="geometry" />
        </mxCell>
        <mxCell id="LLEtQVh6ZAPBpGqNTMHM-21" value="1.7" style="swimlane;fontStyle=0;childLayout=stackLayout;horizontal=1;startSize=30;horizontalStack=0;resizeParent=1;resizeParentMax=0;resizeLast=0;collapsible=1;marginBottom=0;whiteSpace=wrap;html=1;rounded=1;" parent="1" vertex="1">
          <mxGeometry x="550" y="1680" width="150" height="100" as="geometry" />
        </mxCell>
        <mxCell id="LLEtQVh6ZAPBpGqNTMHM-22" value="Manage&lt;br&gt;&amp;nbsp;Refund&lt;br&gt;Request" style="text;strokeColor=none;fillColor=none;align=center;verticalAlign=middle;spacingLeft=4;spacingRight=4;overflow=hidden;points=[[0,0.5],[1,0.5]];portConstraint=eastwest;rotatable=0;whiteSpace=wrap;html=1;" parent="LLEtQVh6ZAPBpGqNTMHM-21" vertex="1">
          <mxGeometry y="30" width="150" height="70" as="geometry" />
        </mxCell>
        <mxCell id="LLEtQVh6ZAPBpGqNTMHM-23" value="" style="endArrow=classic;html=1;rounded=0;exitX=0;exitY=0;exitDx=0;exitDy=48.75;entryX=1;entryY=0.5;entryDx=0;entryDy=0;exitPerimeter=0;" parent="1" source="sCOduQ-NGnOX70wJEheQ-2" target="LLEtQVh6ZAPBpGqNTMHM-22" edge="1">
          <mxGeometry width="50" height="50" relative="1" as="geometry">
            <mxPoint x="650" y="1215" as="sourcePoint" />
            <mxPoint x="820" y="1321" as="targetPoint" />
            <Array as="points">
              <mxPoint x="750" y="1344" />
              <mxPoint x="750" y="1745" />
            </Array>
          </mxGeometry>
        </mxCell>
        <mxCell id="LLEtQVh6ZAPBpGqNTMHM-24" value="Payment &lt;br&gt;Confirmation" style="text;html=1;strokeColor=none;fillColor=none;align=center;verticalAlign=middle;whiteSpace=wrap;rounded=0;" parent="1" vertex="1">
          <mxGeometry x="584" y="1590" width="82" height="30" as="geometry" />
        </mxCell>
        <mxCell id="LLEtQVh6ZAPBpGqNTMHM-25" value="" style="endArrow=classic;html=1;rounded=0;exitX=0;exitY=0.25;exitDx=0;exitDy=0;entryX=1;entryY=0.5;entryDx=0;entryDy=0;" parent="1" source="LLEtQVh6ZAPBpGqNTMHM-21" target="LLEtQVh6ZAPBpGqNTMHM-1" edge="1">
          <mxGeometry width="50" height="50" relative="1" as="geometry">
            <mxPoint x="353" y="1458" as="sourcePoint" />
            <mxPoint x="344" y="1820" as="targetPoint" />
            <Array as="points" />
          </mxGeometry>
        </mxCell>
        <mxCell id="LLEtQVh6ZAPBpGqNTMHM-26" value="Refund &lt;br&gt;Details" style="text;html=1;strokeColor=none;fillColor=none;align=center;verticalAlign=middle;whiteSpace=wrap;rounded=0;" parent="1" vertex="1">
          <mxGeometry x="106.75" y="1530" width="86.25" height="30" as="geometry" />
        </mxCell>
        <mxCell id="LLEtQVh6ZAPBpGqNTMHM-28" value="" style="endArrow=classic;html=1;rounded=0;exitX=0;exitY=0.5;exitDx=0;exitDy=0;entryX=0;entryY=0;entryDx=0;entryDy=32.5;entryPerimeter=0;" parent="1" source="LLEtQVh6ZAPBpGqNTMHM-1" target="sCOduQ-NGnOX70wJEheQ-10" edge="1">
          <mxGeometry width="50" height="50" relative="1" as="geometry">
            <mxPoint x="353" y="1458" as="sourcePoint" />
            <mxPoint x="480" y="1580" as="targetPoint" />
            <Array as="points">
              <mxPoint x="110" y="1705" />
              <mxPoint x="110" y="1269" />
            </Array>
          </mxGeometry>
        </mxCell>
        <mxCell id="LLEtQVh6ZAPBpGqNTMHM-29" value="Refund Details" style="text;html=1;strokeColor=none;fillColor=none;align=center;verticalAlign=middle;whiteSpace=wrap;rounded=0;" parent="1" vertex="1">
          <mxGeometry x="400" y="1680" width="142.5" height="30" as="geometry" />
        </mxCell>
        <mxCell id="LLEtQVh6ZAPBpGqNTMHM-30" value="" style="endArrow=classic;html=1;rounded=0;exitX=0;exitY=0;exitDx=120;exitDy=42.5;entryX=0.5;entryY=0;entryDx=0;entryDy=0;exitPerimeter=0;" parent="1" source="sCOduQ-NGnOX70wJEheQ-10" target="LLEtQVh6ZAPBpGqNTMHM-21" edge="1">
          <mxGeometry width="50" height="50" relative="1" as="geometry">
            <mxPoint x="353" y="1459" as="sourcePoint" />
            <mxPoint x="495" y="1580" as="targetPoint" />
            <Array as="points">
              <mxPoint x="370" y="1280" />
              <mxPoint x="370" y="1650" />
              <mxPoint x="625" y="1650" />
            </Array>
          </mxGeometry>
        </mxCell>
        <mxCell id="LLEtQVh6ZAPBpGqNTMHM-31" value="Refund &lt;br&gt;Confirmation" style="text;html=1;strokeColor=none;fillColor=none;align=center;verticalAlign=middle;whiteSpace=wrap;rounded=0;" parent="1" vertex="1">
          <mxGeometry x="283.75" y="1530" width="86.25" height="30" as="geometry" />
        </mxCell>
        <mxCell id="LLEtQVh6ZAPBpGqNTMHM-33" value="" style="endArrow=classic;html=1;rounded=0;exitX=0.75;exitY=0;exitDx=0;exitDy=0;entryX=0;entryY=0;entryDx=0;entryDy=32.5;entryPerimeter=0;" parent="1" source="LLEtQVh6ZAPBpGqNTMHM-21" target="sCOduQ-NGnOX70wJEheQ-2" edge="1">
          <mxGeometry width="50" height="50" relative="1" as="geometry">
            <mxPoint x="575" y="1595" as="sourcePoint" />
            <mxPoint x="810" y="1595" as="targetPoint" />
            <Array as="points">
              <mxPoint x="663" y="1650" />
              <mxPoint x="720" y="1650" />
              <mxPoint x="720" y="1328" />
            </Array>
          </mxGeometry>
        </mxCell>
        <mxCell id="LLEtQVh6ZAPBpGqNTMHM-34" value="Refund &lt;br&gt;Confirmation" style="text;html=1;strokeColor=none;fillColor=none;align=center;verticalAlign=middle;whiteSpace=wrap;rounded=0;" parent="1" vertex="1">
          <mxGeometry x="640" y="1470" width="86.25" height="30" as="geometry" />
        </mxCell>
      </root>
    </mxGraphModel>
  </diagram>
</mxfile>
